#!OML:ASF H:\Terrain\Patient Classification 1\Walking\steve\steve.ASF
:FULLY-SPECIFIED
:DEGREES
318
root 7.22725 16.3621 4.36456 6.31985 -1.92481 -2.00924
lowerback 0.347279 2.11875 4.02809
upperback -1.99782 2.92667 1.99589
thorax -2.15186 1.40817 -0.265496
lowerneck -10.251 -0.663154 -1.79542
upperneck 20.936 -0.471946 -0.433983
head 8.17665 -0.400351 0.110836
rclavicle 2.45748e-014 6.36111e-015
rhumerus -27.1228 -18.9602 -79.6664
rradius 22.6493
rwrist 5.77909
rhand -23.6463 -31.1869
rfingers 7.12502
rthumb 2.81895 -61.148
lclavicle 2.45748e-014 6.36111e-015
lhumerus -33.319 10.4719 84.616
lradius 19.4734
lwrist 1.49338
lhand -22.5705 -14.877
lfingers 7.12502
lthumb 3.85791 15.0678
rfemur -22.8399 3.79589 27.4657
rtibia 37.0483
rfoot -17.4612 9.96371
rtoes 8.98925
lfemur -27.6226 8.70823 -19.2124
ltibia 66.4134
lfoot -7.97071 0.364736
ltoes -15.2568
319
root 7.24981 16.3744 4.54457 6.04015 -2.17456 -1.52291
lowerback -0.00456529 2.25368 3.91674
upperback -1.8523 3.07285 1.65697
thorax -1.78598 1.48755 -0.534354
lowerneck -10.0372 -0.685283 -1.62489
upperneck 21.0071 -0.537405 -0.438569
head 8.16093 -0.418392 0.0747909
rclavicle 5.6753e-014 8.74653e-015
rhumerus -25.9529 -18.4264 -80.5053
rradius 22.6847
rwrist 5.16084
rhand -24.6515 -30.8084
rfingers 7.12502
rthumb 1.84816 -60.7802
lclavicle 5.6753e-014 8.74653e-015
lhumerus -34.3736 10.6525 84.0404
lradius 19.0896
lwrist 0.697897
lhand -21.885 -14.4478
lfingers 7.12502
lthumb 4.51977 15.484
rfemur -21.7839 3.15247 26.9007
rtibia 36.9583
rfoot -18.175 10.9182
rtoes 7.40588
lfemur -27.8238 8.65923 -19.9093
ltibia 65.2837
lfoot -9.78267 -0.196008
ltoes -15.219
320
root 7.26018 16.3761 4.69359 5.93636 -2.25398 -1.43101
lowerback 0.0129948 2.34866 3.96009
upperback -1.87817 3.19976 1.52839
thorax -1.80816 1.54848 -0.692654
lowerneck -10.0062 -0.710302 -1.54819
upperneck 21.1507 -0.568616 -0.515048
head 8.20306 -0.435122 0.0332421
rclavicle 8.94531e-015 -2.38542e-015
rhumerus -24.8014 -17.7977 -81.0392
rradius 22.9446
rwrist 5.17272
rhand -23.9674 -30.9102
rfingers 7.12502
rthumb 2.50883 -60.8752
lclavicle 8.94531e-015 -2.38542e-015
lhumerus -35.528 10.6496 83.6283
lradius 18.8043
lwrist -0.0468975
lhand -21.4178 -13.8413
lfingers 7.12502
lthumb 4.97096 16.0804
rfemur -20.9745 2.97597 26.7486
rtibia 36.8686
rfoot -18.633 11.643
rtoes 7.89911
lfemur -28.5371 8.42492 -20.1486
ltibia 64.1001
lfoot -11.0415 -0.150578
ltoes -13.5533
321
root 7.25961 16.3715 4.82592 5.90381 -2.37598 -1.48694
lowerback 0.197367 2.4694 3.84462
upperback -1.9049 3.37121 1.55835
thorax -1.94056 1.63372 -0.609342
lowerneck -10.4321 -0.733347 -1.55609
upperneck 21.667 -0.56804 -0.592528
head 8.45535 -0.446295 0.0060497
rclavicle -1.57288e-014 -2.22639e-014
rhumerus -23.5221 -17.0767 -81.4409
rradius 23.2043
rwrist 5.25951
rhand -23.2301 -31.2453
rfingers 7.12502
rthumb 3.22087 -61.2007
lclavicle -1.57288e-014 -2.22639e-014
lhumerus -36.5078 10.5417 83.4542
lradius 18.5907
lwrist -0.588787
lhand -21.2567 -13.6265
lfingers 7.12502
lthumb 5.12647 16.2915
rfemur -20.2959 3.14905 26.7924
rtibia 36.7233
rfoot -19.0545 11.7456
rtoes 8.48841
lfemur -29.4454 8.33659 -20.1344
ltibia 62.7248
lfoot -11.5286 -0.0147345
ltoes -11.3201
322
root 7.2616 16.3643 4.9696 5.77715 -2.53302 -1.36536
lowerback 0.205193 2.60031 3.60571
upperback -1.83828 3.53943 1.47499
thorax -1.87851 1.72267 -0.562871
lowerneck -10.3691 -0.750347 -1.48024
upperneck 21.6725 -0.617486 -0.545175
head 8.44546 -0.458343 0.00435794
rclavicle 9.24349e-015 -1.59028e-014
rhumerus -22.4632 -16.061 -82.0031
rradius 23.6933
rwrist 4.72881
rhand -23.219 -32.3594
rfingers 7.12502
rthumb 3.23164 -62.3146
lclavicle 9.24349e-015 -1.59028e-014
lhumerus -37.4206 10.1784 83.3127
lradius 18.4617
lwrist -0.850508
lhand -21.3725 -13.8143
lfingers 7.12502
lthumb 5.0147 16.1063
rfemur -19.5612 3.00557 26.6817
rtibia 36.4756
rfoot -19.3368 11.7064
rtoes 7.96684
lfemur -30.0974 8.27036 -20.2772
ltibia 61.3017
lfoot -12.1682 -0.0668411
ltoes -8.98165
323
root 7.26496 16.3596 5.1193 5.71507 -2.58694 -1.64128
lowerback 0.106574 2.68042 3.92494
upperback -1.79488 3.6418 1.4054
thorax -1.75134 1.77063 -0.80542
lowerneck -10.1312 -0.746564 -1.4771
upperneck 21.4896 -0.674887 -0.290261
head 8.34063 -0.458482 0.0845869
rclavicle 7.29415e-014 3.18055e-014
rhumerus -21.613 -15.5459 -82.4001
rradius 24.4895
rwrist 5.82225
rhand -21.3406 -35.3856
rfingers 7.12502
rthumb 5.04551 -65.3056
lclavicle 7.29415e-014 3.18055e-014
lhumerus -38.3169 9.82102 82.9868
lradius 18.2941
lwrist -1.01577
lhand -21.41 -14.2875
lfingers 7.12502
lthumb 4.9785 15.634
rfemur -18.7487 2.806 26.9964
rtibia 36.1207
rfoot -19.3635 12.0713
rtoes 7.84295
lfemur -30.78 8.1724 -19.9851
ltibia 59.8664
lfoot -12.6183 0.151823
ltoes -7.49753
324
root 7.27002 16.3691 5.26297 5.79673 -2.65635 -2.18624
lowerback 0.0183088 2.77109 4.50093
upperback -1.82381 3.76566 1.49236
thorax -1.6971 1.82479 -1.03216
lowerneck -10.0951 -0.768799 -1.71794
upperneck 21.5388 -0.72055 -0.0155935
head 8.35301 -0.472091 0.212335
rclavicle -3.46258e-014 4.77083e-015
rhumerus -20.7299 -14.6435 -82.7294
rradius 25.3575
rwrist 6.42399
rhand -19.339 -37.727
rfingers 7.12502
rthumb 6.97788 -67.592
lclavicle -3.46258e-014 4.77083e-015
lhumerus -39.1887 9.43744 82.9318
lradius 18.0192
lwrist -0.88449
lhand -21.5739 -14.3523
lfingers 7.12502
lthumb 4.82023 15.5728
rfemur -17.8677 2.7191 27.5667
rtibia 35.6047
rfoot -19.7766 12.4618
rtoes 7.53664
lfemur -31.6853 8.03947 -19.3248
ltibia 58.364
lfoot -12.9865 0.155751
ltoes -4.5524
325
root 7.27944 16.3805 5.40432 5.93151 -2.81567 -2.29432
lowerback -0.1786 2.90761 4.56382
upperback -1.79918 3.93574 1.55737
thorax -1.55338 1.91252 -0.989493
lowerneck -10.0581 -0.824106 -1.84434
upperneck 21.4803 -0.748705 -0.127367
head 8.32735 -0.506054 0.193636
rclavicle 1.28589e-014 -3.18055e-015
rhumerus -19.5977 -13.2162 -83.0493
rradius 25.9244
rwrist 5.5644
rhand -18.8484 -38.9098
rfingers 7.12502
rthumb 7.45148 -68.7585
lclavicle 1.28589e-014 -3.18055e-015
lhumerus -39.9244 8.40352 83.5412
lradius 17.7802
lwrist 0.11864
lhand -21.9062 -13.9681
lfingers 7.12502
lthumb 4.49937 15.9641
rfemur -17.0503 2.59751 27.6112
rtibia 34.9699
rfoot -20.2943 12.7889
rtoes 7.66712
lfemur -32.5725 7.87453 -19.1243
ltibia 56.7321
lfoot -13.7811 -0.132135
ltoes -3.59277
326
root 7.28511 16.3846 5.545 5.95976 -3.00351 -2.42477
lowerback -0.141713 3.05585 4.61128
upperback -1.79973 4.13625 1.57434
thorax -1.56283 2.01185 -1.00106
lowerneck -9.93818 -0.821117 -1.75191
upperneck 21.3513 -0.730255 -0.282309
head 8.26078 -0.5042 0.128973
rclavicle 1.1865e-014 1.43125e-014
rhumerus -18.6054 -12.1641 -83.2937
rradius 26.3775
rwrist 4.93677
rhand -18.621 -39.1713
rfingers 7.12502
rthumb 7.67098 -69.0122
lclavicle 1.1865e-014 1.43125e-014
lhumerus -40.7325 7.12038 84.1072
lradius 17.8006
lwrist 1.24671
lhand -21.8383 -13.5515
lfingers 7.12502
lthumb 4.56486 16.3793
rfemur -16.2687 2.63721 27.7331
rtibia 34.3258
rfoot -20.1821 12.7884
rtoes 7.7809
lfemur -33.2688 7.70554 -18.9091
ltibia 54.9546
lfoot -14.3956 0.0856959
ltoes -7.69713
